# xmcd
#
# Track frame offsets:
#	150
#	10820
#	24965
#	41205
#	55517
#	69862
#	81242
#	97557
#	110280
#	125237
#
# Disc length: 1840 seconds
#
# Revision: 2
# Processed by: cddbd v1.5.2PL0 Copyright (c) Steve Scherf et al.
# Submitted via: dBpowerAMP V4.0
#
DISCID=6f072e0a
DTITLE=Ricky Van Shelton - All American Country
DYEAR=2005
DGENRE=Country
TTITLE0=From A Jack To A King
TTITLE1=Lola's Love
TTITLE2=A Couple Of Good Years Left
TTITLE3=Just As I Am
TTITLE4=Where Was I
TTITLE5=Hole In My Pocket
TTITLE6=Life's Little Ups And Downs
TTITLE7=Wherever She Is
TTITLE8=After The Lights Go Out
TTITLE9=Oh Pretty Woman
EXTD=
EXTT0=
EXTT1=
EXTT2=
EXTT3=
EXTT4=
EXTT5=
EXTT6=
EXTT7=
EXTT8=
EXTT9=
PLAYORDER=
